<mxfile host="app.diagrams.net" agent="Mozilla/5.0 (Windows NT 10.0; Win64; x64; rv:140.0) Gecko/20100101 Firefox/140.0" version="27.2.0">
  <diagram name="Page-1" id="f8yfjlLF07Ft3CDbtdS5">
    <mxGraphModel dx="1310" dy="698" grid="1" gridSize="10" guides="1" tooltips="1" connect="1" arrows="1" fold="1" page="1" pageScale="1" pageWidth="850" pageHeight="1100" math="0" shadow="0">
      <root>
        <mxCell id="0" />
        <mxCell id="1" parent="0" />
        <mxCell id="do9LcFVYah86Ixdnv7E6-16" style="edgeStyle=orthogonalEdgeStyle;rounded=0;orthogonalLoop=1;jettySize=auto;html=1;exitX=0.5;exitY=1;exitDx=0;exitDy=0;entryX=0.5;entryY=0;entryDx=0;entryDy=0;" edge="1" parent="1" source="do9LcFVYah86Ixdnv7E6-1" target="do9LcFVYah86Ixdnv7E6-4">
          <mxGeometry relative="1" as="geometry" />
        </mxCell>
        <mxCell id="do9LcFVYah86Ixdnv7E6-1" value="User / Client Browser" style="rounded=1;whiteSpace=wrap;html=1;fillColor=#cce5ff;strokeColor=#36393d;labelBackgroundColor=none;fontSize=14;fontStyle=1;fontFamily=Helvetica;" vertex="1" parent="1">
          <mxGeometry x="120" y="50" width="140" height="70" as="geometry" />
        </mxCell>
        <mxCell id="do9LcFVYah86Ixdnv7E6-17" style="edgeStyle=orthogonalEdgeStyle;rounded=0;orthogonalLoop=1;jettySize=auto;html=1;exitX=1;exitY=0.5;exitDx=0;exitDy=0;" edge="1" parent="1" source="do9LcFVYah86Ixdnv7E6-4" target="do9LcFVYah86Ixdnv7E6-5">
          <mxGeometry relative="1" as="geometry" />
        </mxCell>
        <mxCell id="do9LcFVYah86Ixdnv7E6-4" value="cipta-devtest.my.id" style="rounded=0;whiteSpace=wrap;html=1;" vertex="1" parent="1">
          <mxGeometry x="130" y="190" width="120" height="60" as="geometry" />
        </mxCell>
        <mxCell id="do9LcFVYah86Ixdnv7E6-23" style="edgeStyle=orthogonalEdgeStyle;rounded=0;orthogonalLoop=1;jettySize=auto;html=1;exitX=0.5;exitY=1;exitDx=0;exitDy=0;entryX=0.5;entryY=0;entryDx=0;entryDy=0;" edge="1" parent="1" source="do9LcFVYah86Ixdnv7E6-5" target="do9LcFVYah86Ixdnv7E6-6">
          <mxGeometry relative="1" as="geometry" />
        </mxCell>
        <mxCell id="do9LcFVYah86Ixdnv7E6-24" style="edgeStyle=orthogonalEdgeStyle;rounded=0;orthogonalLoop=1;jettySize=auto;html=1;exitX=0.5;exitY=1;exitDx=0;exitDy=0;entryX=0.5;entryY=0;entryDx=0;entryDy=0;" edge="1" parent="1" source="do9LcFVYah86Ixdnv7E6-5" target="do9LcFVYah86Ixdnv7E6-8">
          <mxGeometry relative="1" as="geometry" />
        </mxCell>
        <mxCell id="do9LcFVYah86Ixdnv7E6-33" style="edgeStyle=orthogonalEdgeStyle;rounded=0;orthogonalLoop=1;jettySize=auto;html=1;exitX=1;exitY=0.5;exitDx=0;exitDy=0;entryX=1;entryY=0.5;entryDx=0;entryDy=0;" edge="1" parent="1" source="do9LcFVYah86Ixdnv7E6-5" target="do9LcFVYah86Ixdnv7E6-1">
          <mxGeometry relative="1" as="geometry" />
        </mxCell>
        <mxCell id="do9LcFVYah86Ixdnv7E6-5" value="Shared Hosting (DomaiNesia)" style="rounded=0;whiteSpace=wrap;html=1;" vertex="1" parent="1">
          <mxGeometry x="365" y="190" width="120" height="60" as="geometry" />
        </mxCell>
        <mxCell id="do9LcFVYah86Ixdnv7E6-21" style="edgeStyle=orthogonalEdgeStyle;rounded=0;orthogonalLoop=1;jettySize=auto;html=1;exitX=1;exitY=0.5;exitDx=0;exitDy=0;entryX=0;entryY=0.5;entryDx=0;entryDy=0;" edge="1" parent="1" source="do9LcFVYah86Ixdnv7E6-6" target="do9LcFVYah86Ixdnv7E6-7">
          <mxGeometry relative="1" as="geometry" />
        </mxCell>
        <mxCell id="do9LcFVYah86Ixdnv7E6-35" style="edgeStyle=orthogonalEdgeStyle;rounded=0;orthogonalLoop=1;jettySize=auto;html=1;exitX=0;exitY=0.5;exitDx=0;exitDy=0;entryX=1;entryY=0.5;entryDx=0;entryDy=0;" edge="1" parent="1" source="do9LcFVYah86Ixdnv7E6-6" target="do9LcFVYah86Ixdnv7E6-8">
          <mxGeometry relative="1" as="geometry" />
        </mxCell>
        <mxCell id="do9LcFVYah86Ixdnv7E6-6" value="Web Server (Apache/Nginx)" style="rounded=0;whiteSpace=wrap;html=1;fillColor=#cdeb8b;strokeColor=#36393d;" vertex="1" parent="1">
          <mxGeometry x="480" y="350" width="120" height="60" as="geometry" />
        </mxCell>
        <mxCell id="do9LcFVYah86Ixdnv7E6-7" value="HTML Files" style="rounded=0;whiteSpace=wrap;html=1;fillColor=#cce5ff;strokeColor=#36393d;" vertex="1" parent="1">
          <mxGeometry x="690" y="350" width="120" height="60" as="geometry" />
        </mxCell>
        <mxCell id="do9LcFVYah86Ixdnv7E6-25" style="edgeStyle=orthogonalEdgeStyle;rounded=0;orthogonalLoop=1;jettySize=auto;html=1;exitX=0;exitY=0.5;exitDx=0;exitDy=0;entryX=0;entryY=0.5;entryDx=0;entryDy=0;" edge="1" parent="1" source="do9LcFVYah86Ixdnv7E6-8" target="do9LcFVYah86Ixdnv7E6-1">
          <mxGeometry relative="1" as="geometry" />
        </mxCell>
        <mxCell id="do9LcFVYah86Ixdnv7E6-27" style="edgeStyle=orthogonalEdgeStyle;rounded=0;orthogonalLoop=1;jettySize=auto;html=1;exitX=0.5;exitY=1;exitDx=0;exitDy=0;entryX=0.5;entryY=0;entryDx=0;entryDy=0;" edge="1" parent="1" source="do9LcFVYah86Ixdnv7E6-8" target="do9LcFVYah86Ixdnv7E6-9">
          <mxGeometry relative="1" as="geometry" />
        </mxCell>
        <mxCell id="do9LcFVYah86Ixdnv7E6-29" style="edgeStyle=orthogonalEdgeStyle;rounded=0;orthogonalLoop=1;jettySize=auto;html=1;exitX=0.5;exitY=1;exitDx=0;exitDy=0;entryX=0.5;entryY=0;entryDx=0;entryDy=0;" edge="1" parent="1" source="do9LcFVYah86Ixdnv7E6-8" target="do9LcFVYah86Ixdnv7E6-10">
          <mxGeometry relative="1" as="geometry" />
        </mxCell>
        <mxCell id="do9LcFVYah86Ixdnv7E6-8" value="PHP Engine (send_email.php)" style="rounded=0;whiteSpace=wrap;html=1;fillColor=#cdeb8b;strokeColor=#36393d;" vertex="1" parent="1">
          <mxGeometry x="270" y="350" width="120" height="60" as="geometry" />
        </mxCell>
        <mxCell id="do9LcFVYah86Ixdnv7E6-9" value="MySQL Database" style="rounded=0;whiteSpace=wrap;html=1;fillColor=#ffff88;strokeColor=#36393d;" vertex="1" parent="1">
          <mxGeometry x="270" y="480" width="120" height="60" as="geometry" />
        </mxCell>
        <mxCell id="do9LcFVYah86Ixdnv7E6-31" style="edgeStyle=orthogonalEdgeStyle;rounded=0;orthogonalLoop=1;jettySize=auto;html=1;exitX=0.5;exitY=1;exitDx=0;exitDy=0;entryX=0.5;entryY=0;entryDx=0;entryDy=0;" edge="1" parent="1" source="do9LcFVYah86Ixdnv7E6-10" target="do9LcFVYah86Ixdnv7E6-11">
          <mxGeometry relative="1" as="geometry" />
        </mxCell>
        <mxCell id="do9LcFVYah86Ixdnv7E6-10" value="Hosting Mail Server" style="rounded=0;whiteSpace=wrap;html=1;fillColor=#cdeb8b;strokeColor=#36393d;" vertex="1" parent="1">
          <mxGeometry x="460" y="480" width="120" height="60" as="geometry" />
        </mxCell>
        <mxCell id="do9LcFVYah86Ixdnv7E6-11" value="Email Tujuan (mbclab1234@gmail.com)" style="rounded=0;whiteSpace=wrap;html=1;fillColor=#eeeeee;strokeColor=#36393d;" vertex="1" parent="1">
          <mxGeometry x="435" y="600" width="170" height="80" as="geometry" />
        </mxCell>
        <mxCell id="do9LcFVYah86Ixdnv7E6-14" value="HTTPS Request" style="text;html=1;align=center;verticalAlign=middle;whiteSpace=wrap;rounded=0;rotation=0;" vertex="1" parent="1">
          <mxGeometry x="120" y="140" width="70" height="30" as="geometry" />
        </mxCell>
        <mxCell id="do9LcFVYah86Ixdnv7E6-18" value="DNS Resolution / Traffic" style="text;html=1;align=center;verticalAlign=middle;whiteSpace=wrap;rounded=0;" vertex="1" parent="1">
          <mxGeometry x="260" y="190" width="100" height="30" as="geometry" />
        </mxCell>
        <mxCell id="do9LcFVYah86Ixdnv7E6-20" value="Serves Static Content" style="text;html=1;align=center;verticalAlign=middle;whiteSpace=wrap;rounded=0;" vertex="1" parent="1">
          <mxGeometry x="605" y="350" width="80" height="30" as="geometry" />
        </mxCell>
        <mxCell id="do9LcFVYah86Ixdnv7E6-26" value="AJAX POST Request (Form Data)" style="text;html=1;align=center;verticalAlign=middle;whiteSpace=wrap;rounded=0;" vertex="1" parent="1">
          <mxGeometry x="20" y="225" width="80" height="30" as="geometry" />
        </mxCell>
        <mxCell id="do9LcFVYah86Ixdnv7E6-28" value="Database Query (INSERT Data)" style="text;html=1;align=center;verticalAlign=middle;whiteSpace=wrap;rounded=0;" vertex="1" parent="1">
          <mxGeometry x="230" y="425" width="90" height="30" as="geometry" />
        </mxCell>
        <mxCell id="do9LcFVYah86Ixdnv7E6-30" value="Email Sending Request" style="text;html=1;align=center;verticalAlign=middle;whiteSpace=wrap;rounded=0;" vertex="1" parent="1">
          <mxGeometry x="390" y="410" width="90" height="30" as="geometry" />
        </mxCell>
        <mxCell id="do9LcFVYah86Ixdnv7E6-32" value="SMTP (Email Delivery)" style="text;html=1;align=center;verticalAlign=middle;whiteSpace=wrap;rounded=0;" vertex="1" parent="1">
          <mxGeometry x="530" y="560" width="140" height="30" as="geometry" />
        </mxCell>
        <mxCell id="do9LcFVYah86Ixdnv7E6-34" value="HTTPS Response (HTML/JSON)" style="text;html=1;align=center;verticalAlign=middle;whiteSpace=wrap;rounded=0;" vertex="1" parent="1">
          <mxGeometry x="510" y="120" width="90" height="30" as="geometry" />
        </mxCell>
        <mxCell id="do9LcFVYah86Ixdnv7E6-36" value="Forwards PHP Request" style="text;html=1;align=center;verticalAlign=middle;whiteSpace=wrap;rounded=0;" vertex="1" parent="1">
          <mxGeometry x="410" y="340" width="60" height="30" as="geometry" />
        </mxCell>
      </root>
    </mxGraphModel>
  </diagram>
</mxfile>
